<?xml version="1.0" standalone="no"?>
<!DOCTYPE svg PUBLIC "-//W3C//DTD SVG 20010904//EN"
 "http://www.w3.org/TR/2001/REC-SVG-20010904/DTD/svg10.dtd">
<svg version="1.0" xmlns="http://www.w3.org/2000/svg"
 width="240.000000pt" height="240.000000pt" viewBox="0 0 240.000000 240.000000"
 preserveAspectRatio="xMidYMid meet">

<g transform="translate(0.000000,240.000000) scale(0.100000,-0.100000)"
fill="white" stroke="none">
<path d="M1625 2386 c-158 -37 -213 -73 -423 -280 l-183 -181 103 -7 c58 -4
138 -18 183 -31 l80 -23 90 86 c119 114 163 135 280 135 78 0 97 -4 146 -28
66 -32 132 -99 162 -165 17 -37 22 -66 22 -137 0 -139 -6 -148 -299 -443 -296
-299 -323 -317 -461 -317 -67 0 -89 5 -137 28 -61 30 -130 93 -155 140 l-15
30 -109 -109 c-60 -60 -109 -115 -109 -122 0 -25 143 -158 210 -195 101 -55
198 -81 310 -81 117 0 180 14 290 66 83 39 92 48 381 337 311 312 329 333 377
471 23 65 26 91 26 200 0 110 -3 134 -26 198 -37 104 -83 176 -158 252 -121
121 -257 180 -425 186 -63 2 -122 -1 -160 -10z"/>
<path d="M1010 1714 c-98 -16 -145 -31 -220 -66 -83 -39 -93 -48 -381 -337
-311 -312 -329 -333 -377 -471 -23 -65 -26 -91 -26 -200 0 -110 3 -134 26
-198 37 -104 83 -176 158 -252 76 -75 148 -121 252 -158 64 -23 88 -26 198
-26 109 0 135 3 200 26 128 45 166 73 358 262 l183 181 -103 7 c-58 4 -138 18
-183 31 l-80 23 -90 -86 c-119 -114 -163 -135 -280 -135 -78 0 -97 4 -146 28
-66 32 -132 99 -162 165 -17 37 -22 66 -22 137 0 139 6 148 299 443 271 273
311 304 420 317 119 15 253 -47 318 -146 l32 -50 108 108 c59 59 108 114 108
122 0 8 -35 48 -77 90 -118 116 -250 174 -416 185 -40 2 -83 3 -97 0z"/>
</g>
</svg>
